<?xml version="1.0" standalone="no"?>
<!DOCTYPE svg PUBLIC "-//W3C//DTD SVG 20010904//EN"
 "http://www.w3.org/TR/2001/REC-SVG-20010904/DTD/svg10.dtd">
<svg version="1.0" xmlns="http://www.w3.org/2000/svg"
 width="399.000000pt" height="399.000000pt" viewBox="0 0 399.000000 399.000000"
 preserveAspectRatio="xMidYMid meet">
<metadata>
Created by potrace 1.14, written by Peter Selinger 2001-2017
</metadata>
<g transform="translate(0.000000,399.000000) scale(0.100000,-0.100000)"
fill="#000000" stroke="none">
<path d="M899 3961 c-16 -16 -30 -37 -30 -45 -1 -9 -2 -22 -3 -28 -1 -7 9 -37
22 -66 25 -56 25 -55 6 -230 -7 -58 3 -77 46 -94 32 -13 152 -11 221 3 196 39
369 3 514 -108 33 -25 65 -53 72 -61 16 -20 36 -116 48 -237 3 -33 8 -73 10
-90 2 -16 7 -70 10 -120 4 -49 8 -101 10 -115 2 -14 7 -79 10 -145 8 -187 31
-257 72 -224 9 8 14 9 10 3 -15 -25 74 -145 107 -144 6 0 18 6 27 13 23 18 79
98 79 113 0 7 12 26 28 42 69 74 75 85 78 147 1 33 5 127 9 208 3 81 8 153 10
160 2 7 6 41 10 77 12 128 39 285 61 353 17 52 81 112 152 143 20 8 52 23 69
31 55 27 277 16 403 -19 100 -27 101 -27 132 -11 36 18 46 57 47 189 1 76 3
85 35 132 32 46 34 51 18 65 -44 38 -78 42 -157 17 -72 -23 -396 -94 -480
-105 -190 -25 -794 -24 -950 1 -44 7 -122 18 -174 23 -51 6 -107 18 -124 26
-16 8 -37 15 -46 15 -9 0 -35 9 -56 21 -22 11 -51 24 -65 29 -14 5 -56 20 -94
34 -87 33 -101 33 -137 -3z m93 -58 c22 -20 23 -52 2 -60 -21 -8 -69 40 -61
61 8 21 36 20 59 -1z m128 -73 c0 -10 -6 -20 -12 -23 -10 -3 -10 -7 -1 -17 9
-10 22 -10 57 -1 55 14 106 14 106 1 0 -5 -14 -10 -31 -10 -50 0 -24 -17 48
-30 38 -7 79 -18 93 -25 23 -12 164 -30 203 -26 50 5 76 4 111 -2 22 -4 125
-10 229 -12 104 -3 197 -9 206 -14 32 -15 280 -2 334 18 12 5 47 12 77 16 30
4 66 12 79 17 24 9 45 12 171 23 36 3 76 9 89 12 23 6 23 7 5 13 -10 4 -46 8
-79 9 -33 1 -62 4 -64 7 -11 11 15 15 117 20 95 5 114 3 139 -12 15 -10 31
-23 34 -27 10 -14 2 -134 -10 -154 -10 -17 -10 -17 -11 2 0 15 -2 17 -9 6 -7
-11 -10 -9 -16 8 -6 21 -24 25 -88 21 -15 -1 -34 4 -42 10 -9 8 -27 10 -47 6
-18 -4 -97 -8 -175 -9 -135 -2 -142 -3 -137 -21 5 -16 2 -18 -32 -14 -31 4
-42 0 -61 -21 -12 -14 -23 -34 -23 -43 0 -11 -14 -21 -41 -29 -37 -11 -79 -52
-79 -77 0 -5 -9 -19 -20 -32 -20 -23 -19 -61 1 -68 15 -6 10 -27 -11 -45 -16
-13 -20 -29 -20 -77 0 -35 -7 -74 -15 -90 -8 -16 -14 -33 -13 -37 0 -4 -5 -21
-12 -38 -9 -21 -14 -101 -16 -267 -2 -231 -7 -275 -25 -247 -11 18 -39 2 -50
-29 -7 -18 -5 -22 11 -22 26 0 26 -2 -15 -56 -19 -25 -33 -50 -29 -55 3 -5 -1
-9 -8 -9 -8 0 -34 20 -58 45 -24 25 -53 45 -63 45 -31 0 -13 25 21 28 35 4 37
10 22 62 -10 36 -26 289 -29 469 -1 35 -3 62 -6 59 -3 -3 -7 -103 -9 -222 -2
-120 -7 -220 -10 -223 -6 -7 -7 3 -10 264 -1 94 -5 175 -10 180 -4 4 -7 -11
-4 -34 2 -23 0 -39 -5 -34 -12 12 -11 110 2 125 16 20 5 72 -29 140 -27 54
-29 60 -13 71 15 11 14 14 -5 31 -11 10 -32 27 -46 37 -14 10 -26 26 -26 36 0
10 -9 26 -20 36 -16 14 -22 15 -35 5 -12 -10 -19 -8 -41 9 -15 12 -41 21 -59
21 -33 0 -93 17 -108 30 -5 4 6 6 25 5 l33 -3 -33 14 c-18 8 -30 19 -27 24 4
6 -8 10 -27 10 -25 0 -29 3 -18 10 22 14 3 15 -179 7 -81 -3 -123 0 -191 15
-9 2 -16 -5 -16 -17 -1 -11 -2 -26 -3 -33 -1 -7 -5 -10 -11 -7 -15 9 -39 99
-46 175 l-6 70 31 -6 c22 -5 31 -3 33 7 0 8 2 19 3 24 2 6 3 13 4 18 2 15 51
-26 51 -43z"/>
<path d="M613 3860 c-73 -133 -113 -173 -248 -249 -22 -12 -52 -41 -68 -64
-15 -23 -37 -54 -49 -69 -47 -59 7 -145 128 -205 54 -27 96 -59 166 -128 153
-151 162 -166 193 -332 31 -165 40 -346 40 -828 0 -381 -6 -620 -19 -715 -5
-36 -13 -109 -22 -195 -9 -90 -23 -168 -32 -174 -4 -3 -14 -21 -22 -40 -7 -18
-42 -75 -76 -126 -66 -98 -84 -143 -84 -211 0 -34 5 -45 28 -60 43 -29 171
-22 291 15 60 19 62 19 123 -1 109 -34 210 -9 251 62 27 46 16 70 -70 161
l-76 80 -3 77 c-1 42 -6 176 -10 297 -15 428 -6 1296 15 1437 3 16 46 -9 102
-61 124 -112 305 -305 315 -333 3 -10 11 -18 18 -18 7 0 41 -33 76 -72 35 -40
122 -133 194 -206 119 -120 203 -208 232 -243 6 -8 20 -21 30 -30 11 -10 33
-36 49 -59 17 -23 41 -49 55 -57 14 -8 37 -31 50 -51 13 -21 37 -53 53 -72 79
-98 109 -139 139 -194 73 -134 88 -221 46 -250 -12 -9 -32 -16 -45 -16 -12 0
-25 -5 -29 -12 -4 -6 -8 -68 -9 -136 l-2 -124 76 5 c123 9 148 17 234 71 71
44 85 58 110 107 24 46 29 69 29 130 1 103 -14 205 -37 254 -7 17 -23 53 -35
80 -13 28 -42 81 -66 118 -24 37 -44 71 -44 75 0 4 -11 18 -24 32 -14 14 -78
83 -143 154 -65 72 -131 144 -148 161 -52 54 -295 319 -343 374 -12 14 -24 33
-27 42 -3 9 -15 21 -28 28 -12 7 -39 36 -60 64 -21 29 -57 73 -80 99 -23 26
-69 77 -102 115 -33 37 -81 86 -107 108 -26 22 -55 56 -65 75 -10 19 -37 54
-60 77 -24 22 -43 45 -43 50 0 5 -19 29 -42 55 -24 25 -54 59 -67 75 -13 15
-50 57 -81 93 -74 85 -124 159 -128 190 -4 32 -41 117 -56 129 -7 6 -30 13
-52 16 -21 3 -49 8 -61 10 -28 6 -28 4 -3 -45 11 -22 20 -42 20 -45 0 -3 -17
-5 -37 -5 -35 0 -36 -1 -21 -17 14 -13 20 -14 32 -4 23 19 48 -14 117 -150 32
-63 58 -106 59 -96 0 21 20 23 20 2 0 -8 4 -15 9 -15 5 0 13 -17 18 -37 6 -27
14 -37 30 -38 12 -1 38 -14 58 -29 34 -26 38 -41 12 -41 -28 0 -15 -35 27 -69
l45 -36 3 32 3 33 18 -32 c9 -18 17 -35 17 -38 0 -3 0 -26 0 -52 0 -45 1 -46
19 -29 18 16 21 16 50 1 38 -19 39 -24 6 -20 -14 1 -25 -1 -25 -4 0 -3 23 -28
50 -54 28 -27 50 -53 50 -58 0 -14 18 -11 23 4 3 9 10 7 23 -6 15 -14 16 -21
7 -36 -10 -15 -9 -20 3 -25 8 -3 19 -17 24 -31 6 -16 17 -25 30 -25 12 0 18 5
15 10 -3 6 -13 10 -21 10 -15 0 -19 12 -7 23 9 10 43 -23 43 -41 0 -19 79
-122 94 -122 6 -1 28 -16 49 -35 36 -31 37 -34 17 -40 -18 -6 -14 -11 35 -47
42 -32 56 -49 61 -75 5 -29 28 -53 48 -53 3 0 6 17 6 38 l1 37 15 -35 c8 -19
25 -45 37 -58 21 -23 21 -24 2 -20 -22 3 -28 -18 -11 -40 14 -19 81 -52 108
-53 l23 0 -23 -10 c-27 -10 -25 -29 6 -45 12 -6 30 -18 40 -27 10 -10 28 -17
40 -17 11 0 24 -4 27 -10 4 -6 -7 -10 -24 -10 -17 0 -31 -3 -31 -6 0 -8 79
-82 107 -101 15 -10 24 -29 29 -59 7 -48 17 -53 47 -27 18 17 20 16 48 -15 27
-30 34 -54 29 -92 -1 -12 1 -12 16 2 13 13 22 14 39 6 34 -15 38 -45 9 -52
-13 -4 -24 -11 -24 -17 0 -6 6 -9 14 -6 21 8 83 -13 103 -35 17 -20 18 -19
-42 -22 -39 -2 -38 -17 2 -36 18 -8 33 -23 33 -32 0 -10 5 -18 10 -18 6 0 10
6 10 14 0 24 18 28 30 7 8 -15 7 -26 -2 -40 -10 -17 -8 -23 20 -49 36 -34 40
-49 15 -68 -16 -12 -16 -13 -2 -14 9 0 20 -7 23 -17 6 -15 7 -15 19 1 10 14
12 8 13 -34 1 -28 9 -71 19 -96 15 -39 15 -50 4 -70 -7 -13 -16 -24 -21 -24
-4 0 -8 -13 -8 -29 0 -31 -40 -81 -65 -81 -8 0 -15 -6 -15 -14 0 -19 -30 -29
-36 -12 -4 11 -13 12 -40 4 -76 -20 -71 14 15 118 5 6 11 47 14 90 5 72 3 82
-17 101 -11 11 -29 35 -39 52 -16 27 -16 31 -3 31 23 0 20 47 -3 60 -28 14
-31 13 -31 -16 0 -14 -4 -23 -10 -19 -6 3 -10 25 -9 48 2 56 -2 68 -31 97 -34
34 -59 36 -56 6 2 -14 0 -30 -5 -37 -8 -14 -14 5 -23 67 -9 68 -55 121 -75 86
-8 -14 -10 -13 -16 11 -9 33 1 61 16 51 8 -5 9 -3 4 5 -10 17 -84 51 -112 51
-12 0 -24 8 -28 19 -3 11 -25 38 -47 61 -23 23 -47 51 -53 63 -5 12 -30 36
-53 54 -36 27 -40 33 -22 33 13 0 20 5 17 13 -2 7 -16 11 -32 9 -33 -4 -45 11
-45 56 0 17 -3 31 -7 31 -5 -1 -20 -1 -35 0 -21 1 -27 6 -30 28 -2 18 -14 35
-35 48 -18 11 -32 29 -33 40 -1 28 -7 35 -74 79 -32 22 -65 51 -74 65 -9 14
-23 30 -30 34 -10 7 -11 12 -1 23 17 20 -21 58 -80 81 -54 21 -85 53 -104 108
-17 47 -82 122 -91 106 -10 -15 -62 13 -82 44 -9 14 -22 25 -28 25 -6 0 -20
10 -30 22 -17 20 -20 20 -31 5 -7 -9 -15 -14 -18 -11 -3 4 -21 -10 -40 -30
-19 -20 -39 -36 -45 -36 -5 0 -19 -19 -31 -42 -18 -37 -19 -44 -6 -58 8 -9 13
-19 10 -22 -6 -5 -13 -111 -19 -278 -2 -58 -9 -127 -16 -155 -15 -66 -23 -361
-10 -405 5 -19 10 -113 11 -210 1 -228 3 -210 -26 -210 -32 0 -47 -48 -31
-100 l11 -35 6 60 c6 62 9 64 14 8 5 -60 16 -103 26 -103 6 0 7 6 3 13 -5 8
-4 9 4 2 5 -5 13 -37 17 -70 3 -33 8 -71 10 -85 2 -14 6 -47 9 -75 11 -88 17
-105 61 -171 24 -36 42 -71 39 -78 -12 -31 -109 -42 -151 -17 -15 9 -13 10 15
11 17 0 32 5 32 11 0 16 -90 5 -100 -11 -7 -11 -11 -11 -25 0 -11 9 -19 10
-23 3 -4 -6 -20 -10 -37 -10 -16 0 -40 -4 -51 -8 -18 -5 -25 -1 -38 26 -21 43
-21 45 19 127 20 40 33 76 30 81 -7 12 31 107 55 139 24 29 26 60 5 68 -21 8
-19 23 7 43 15 13 21 27 19 52 -1 19 -3 45 -3 59 -2 41 13 264 18 269 8 9 15
-8 20 -50 3 -24 7 -46 10 -48 6 -6 7 87 5 525 -2 376 3 437 31 432 13 -3 19
58 10 96 -5 20 -5 20 -13 0 -7 -19 -8 -19 -9 1 -8 82 -6 106 8 114 13 7 12 13
-6 36 -12 15 -22 35 -22 44 0 10 -4 21 -10 27 -5 5 -13 44 -16 84 -6 75 -14
106 -14 57 0 -36 -18 -44 -26 -10 -3 15 -8 35 -10 44 -3 12 -12 122 -17 216
-1 19 -89 101 -132 122 l-40 20 49 1 c41 0 47 2 36 14 -6 8 -33 22 -60 31 -54
18 -80 49 -80 95 0 28 -2 30 -20 20 -15 -8 -25 -7 -42 4 -13 8 -37 14 -55 14
-39 -1 -68 19 -53 37 8 9 6 14 -5 19 -9 3 -23 22 -31 41 -8 21 -21 35 -32 35
-23 1 25 29 50 30 9 0 22 8 27 18 8 12 13 14 18 6 6 -8 22 -2 55 19 47 31 48
47 2 47 -11 0 -29 6 -39 14 -17 13 -12 14 51 10 l70 -4 12 33 c7 18 12 41 12
50 0 21 26 22 46 2 9 -8 22 -15 30 -15 14 0 13 2 0 16 -9 8 -14 25 -12 37 3
12 5 30 5 40 1 24 27 22 34 -3 3 -11 14 -20 25 -20 14 0 21 -9 26 -31 9 -46 7
-134 -3 -144 -15 -16 6 -55 30 -55 19 0 20 -4 15 -34 -5 -28 -2 -39 16 -55 30
-29 43 -21 41 25 -6 128 -6 198 0 274 l7 85 -62 44 c-47 33 -75 46 -110 49
-45 4 -48 3 -65 -28z m1996 -3076 c10 -10 -24 -23 -44 -18 -26 8 -28 11 -21
23 6 9 55 5 65 -5z m-1973 -186 c-4 -31 -26 -35 -26 -5 0 13 3 27 6 30 12 12
24 -4 20 -25z"/>
<path d="M2103 3863 c9 -2 23 -2 30 0 6 3 -1 5 -18 5 -16 0 -22 -2 -12 -5z"/>
<path d="M3365 3820 c-33 -11 -78 -22 -100 -25 -44 -7 -84 -29 -86 -48 -2 -15
-2 -11 5 -72 4 -27 7 -80 7 -118 1 -72 0 -75 -61 -110 -22 -13 -34 -12 -102 4
-96 23 -184 29 -203 15 -7 -6 -16 -36 -20 -66 -3 -30 -8 -66 -10 -80 -2 -14
-6 -52 -9 -85 -4 -33 -9 -73 -12 -90 -14 -68 -127 -262 -195 -337 -19 -20 -52
-60 -74 -89 -90 -118 -124 -162 -216 -276 -53 -65 -117 -141 -142 -168 -67
-72 -63 -90 42 -213 25 -30 62 -77 81 -104 50 -73 60 -77 105 -43 20 16 52 48
69 71 18 24 68 80 111 126 43 46 87 98 97 116 11 17 24 32 30 32 5 0 7 4 3 9
-3 6 0 13 7 18 7 4 25 24 39 43 15 19 41 51 58 70 17 19 31 38 31 42 0 5 15
25 34 45 18 21 48 65 65 98 52 100 65 120 79 119 6 -1 19 -2 27 -3 19 -1 35
-33 50 -100 12 -50 16 -88 30 -281 27 -359 26 -1032 -1 -1260 -10 -81 -36
-206 -54 -253 -11 -29 -40 -77 -65 -107 -55 -67 -85 -126 -85 -168 0 -48 18
-51 263 -38 133 7 139 6 195 -19 68 -30 137 -39 157 -19 7 8 18 14 23 14 18 0
82 75 82 96 0 23 -55 109 -102 159 -15 17 -28 35 -28 41 0 6 -7 25 -16 42 -8
17 -20 60 -25 94 -6 35 -15 77 -21 93 -27 78 -42 562 -40 1335 0 311 3 583 6
605 15 113 19 125 45 141 33 20 94 96 102 129 5 15 2 28 -7 36 -8 6 -14 17
-14 24 0 16 -59 80 -66 72 -3 -3 -7 -31 -9 -62 -5 -67 -13 -95 -26 -95 -5 0
-9 12 -10 28 l0 27 -10 -25 c-6 -14 -20 -35 -31 -47 -18 -20 -19 -23 -5 -23
25 0 21 -8 -23 -56 -22 -24 -40 -54 -41 -66 0 -13 -3 -32 -5 -43 -3 -11 -7
-351 -9 -755 -2 -404 -6 -744 -9 -755 -2 -11 -5 -22 -5 -24 -1 -3 -6 0 -12 6
-6 6 -12 110 -14 284 -5 321 -15 673 -20 709 -2 14 -4 32 -4 40 -1 9 -4 11
-11 4 -5 -5 -11 -78 -12 -161 -3 -168 -15 -198 -17 -46 -6 327 -11 395 -27
423 -16 27 -70 60 -98 60 -8 0 -19 7 -26 15 -19 23 -64 18 -95 -10 -15 -14
-40 -29 -56 -32 -34 -6 -38 -18 -9 -26 32 -8 25 -37 -8 -37 -21 0 -32 -7 -42
-27 -8 -16 -15 -32 -16 -38 0 -5 -6 -21 -12 -35 l-10 -25 -10 25 c-9 23 -10
24 -17 5 -3 -11 -12 -32 -20 -47 -12 -23 -11 -27 3 -33 13 -5 9 -11 -20 -26
-42 -22 -58 -43 -51 -70 4 -15 0 -19 -20 -19 -30 0 -57 -33 -57 -70 0 -33 -10
-70 -19 -70 -4 0 -12 12 -17 28 l-11 27 -16 -35 c-9 -19 -24 -45 -33 -57 -16
-22 -15 -23 5 -23 12 0 19 -4 16 -10 -3 -5 -21 -10 -40 -10 -45 0 -65 -9 -65
-29 0 -10 -9 -27 -20 -39 l-21 -22 28 0 c19 0 24 -3 16 -11 -6 -6 -18 -12 -27
-13 -10 -1 -22 -9 -26 -16 -7 -12 -14 -11 -39 8 -17 12 -38 22 -48 23 -15 0
-14 2 3 9 44 18 43 64 -2 68 -48 4 -61 18 -62 66 -1 44 10 67 23 46 8 -14 52
-13 61 2 9 15 -23 38 -55 39 -19 0 -11 6 27 19 53 17 112 63 112 85 0 18 55
65 86 74 24 6 29 13 30 38 1 17 12 46 25 64 13 19 23 35 21 37 -1 1 -2 12 -2
25 0 18 2 19 10 7 5 -8 10 -26 10 -40 1 -23 2 -22 16 10 8 19 29 50 46 68 29
29 28 38 -4 33 -13 -2 -9 8 13 39 12 16 28 26 35 23 8 -3 14 -1 14 5 0 6 9 8
19 5 17 -4 20 2 26 44 13 86 20 114 30 114 6 0 12 -15 15 -33 6 -40 8 -37 55
77 20 50 46 105 57 123 17 27 17 32 4 32 -13 0 -16 10 -15 48 1 39 2 42 8 17
3 -16 11 -30 16 -30 14 0 19 104 6 119 -13 15 13 56 35 56 9 0 27 9 41 20 20
16 41 20 99 20 63 0 75 3 84 20 14 26 25 25 36 -1 9 -19 11 -17 38 23 24 36
28 55 31 123 2 44 4 88 4 98 1 10 9 17 20 17 11 0 26 7 35 15 12 13 36 21 69
24 4 1 7 8 7 16 0 23 38 18 76 -11 23 -18 33 -32 29 -44 -3 -9 -1 -28 4 -41 6
-13 10 -17 11 -9 0 9 7 3 16 -12 8 -16 22 -28 32 -28 11 -1 7 -5 -11 -13 l-27
-12 28 -30 c35 -37 52 -67 52 -91 0 -16 -1 -16 -15 2 -11 15 -15 16 -15 4 0
-8 -22 -31 -48 -50 -42 -31 -45 -35 -24 -38 17 -3 21 -8 17 -22 -8 -25 10 -33
69 -33 68 0 121 24 146 65 24 39 26 86 5 94 -8 4 -15 10 -15 16 0 15 -73 98
-81 92 -11 -7 -19 10 -25 58 -8 53 -32 128 -49 148 -6 8 -15 23 -18 33 -4 9
-13 17 -22 17 -8 0 -15 5 -15 10 0 16 -91 10 -155 -10z m-892 -1294 c7 -19 -1
-26 -30 -26 -27 0 -30 15 -5 29 23 14 29 13 35 -3z m740 -989 c3 -42 1 -77 -4
-77 -5 0 -9 37 -9 82 0 101 8 98 13 -5z m104 -257 c1 -288 16 -418 54 -490 11
-19 19 -40 19 -47 0 -26 20 -12 21 15 0 24 3 21 25 -23 27 -57 30 -85 10 -85
-12 0 -13 -6 -4 -30 18 -54 -29 -82 -68 -39 -29 32 -53 42 -69 29 -11 -9 -19
-6 -35 10 -20 20 -23 20 -46 5 -13 -8 -24 -12 -24 -9 0 4 -8 -1 -19 -10 -15
-14 -19 -14 -24 -3 -3 8 -19 17 -36 20 -39 8 -39 20 0 93 23 45 28 63 20 75
-5 9 -7 20 -3 23 12 13 42 121 42 155 0 19 3 31 7 27 7 -7 10 -49 12 -150 1
-22 3 -37 5 -35 3 4 8 53 22 234 3 44 7 96 9 115 2 19 4 55 5 80 2 38 3 41 10
20 4 -14 9 -18 9 -10 5 50 15 100 27 135 7 22 14 48 14 58 0 9 4 17 8 17 4 0
8 -81 9 -180z"/>
<path d="M3040 3352 c-48 -4 -66 -18 -48 -39 7 -9 15 -10 23 -3 6 5 38 12 70
15 32 3 63 9 68 14 10 10 -49 17 -113 13z"/>
<path d="M1711 3034 c0 -11 3 -14 6 -6 3 7 2 16 -1 19 -3 4 -6 -2 -5 -13z"/>
<path d="M1722 1675 c-35 -63 -68 -117 -73 -121 -6 -3 -20 -29 -33 -57 -13
-29 -34 -68 -48 -88 -43 -63 -63 -174 -63 -344 1 -142 2 -153 28 -205 31 -65
115 -153 172 -179 22 -11 63 -21 92 -23 61 -5 58 -14 58 167 l0 120 -42 15
c-43 14 -45 18 -45 75 -1 124 6 168 27 189 19 18 56 80 109 183 6 12 20 26 32
32 20 9 84 95 84 112 0 5 -27 30 -60 57 -33 26 -73 69 -89 94 -37 58 -63 88
-76 88 -5 0 -38 -52 -73 -115z m118 -110 c8 -9 10 -27 6 -46 -8 -43 -63 -124
-92 -138 -14 -6 -22 -15 -19 -21 3 -5 1 -19 -5 -30 -7 -13 -7 -20 0 -20 5 0
10 -7 10 -15 0 -8 -4 -15 -10 -15 -5 0 -10 -21 -10 -47 0 -25 -3 -43 -6 -40
-6 6 -9 24 -13 90 0 9 -8 17 -16 17 -16 0 -16 -1 -20 -36 -3 -34 -14 -44 -46
-44 -38 0 -37 16 3 71 24 33 34 60 40 106 7 60 24 110 34 100 3 -2 7 -17 10
-33 7 -37 12 -44 29 -38 8 3 17 22 20 42 9 53 25 91 44 102 22 13 27 12 41 -5z
m-213 -555 c9 -21 4 -41 -18 -68 l-18 -24 -18 36 c-16 35 -16 37 4 55 16 15
20 32 21 85 1 97 17 106 20 11 1 -44 5 -87 9 -95z m63 -53 c0 -22 -37 -97 -49
-97 -13 0 -20 11 -14 26 3 8 9 11 14 8 11 -7 21 18 24 60 2 17 3 36 4 41 2 16
21 -18 21 -38z m44 -59 c27 -38 14 -108 -20 -108 -24 0 -33 41 -18 82 7 20 10
39 7 42 -4 3 -1 6 5 6 6 0 18 -10 26 -22z"/>
<path d="M2276 1598 c-19 -26 -15 -33 11 -19 10 5 27 13 38 16 l20 7 -20 8
c-30 13 -33 12 -49 -12z"/>
<path d="M2060 1445 c0 -8 -5 -15 -11 -15 -19 0 -86 -84 -111 -140 -17 -37
-17 -35 -22 -475 -2 -185 -6 -237 -19 -268 -9 -21 -70 -94 -137 -162 -190
-198 -234 -283 -157 -303 33 -9 133 -7 202 3 22 4 49 7 60 9 11 1 31 8 44 16
33 17 240 8 301 -15 54 -19 344 -95 366 -95 8 0 26 11 39 25 33 32 32 76 -2
130 -22 33 -40 47 -84 64 -31 12 -74 37 -97 56 -109 94 -132 213 -147 760 l-6
199 -47 53 c-162 182 -172 192 -172 158z m49 -195 c7 0 14 7 18 15 5 14 8 14
24 -1 23 -21 24 -37 3 -55 -14 -11 -16 -27 -11 -89 7 -94 13 -110 43 -110 l24
0 1 -127 c1 -194 5 -435 7 -463 3 -32 19 -14 24 25 3 29 4 28 20 -17 18 -51
16 -58 -19 -58 -12 0 -23 -4 -23 -9 0 -14 22 -26 43 -23 11 2 17 -2 16 -10 -2
-11 15 -56 42 -110 5 -10 5 -20 -2 -23 -16 -11 -141 5 -177 22 -47 22 -200 22
-233 0 -28 -20 -88 -22 -113 -4 -17 12 -17 15 5 52 13 22 46 65 74 96 28 30
67 80 87 110 l36 54 5 328 c2 180 7 331 11 334 6 6 10 -12 7 -29 0 -5 4 -8 9
-8 6 0 10 8 10 18 0 10 5 23 12 30 9 9 8 15 -7 26 -18 13 -18 14 -1 42 l19 28
18 -22 c9 -12 22 -22 28 -22z m267 -1077 c-5 -12 -1 -14 21 -11 16 3 36 9 46
13 12 5 17 3 17 -9 0 -23 -29 -33 -88 -28 -40 3 -50 7 -43 16 9 11 18 42 20
71 1 5 8 -1 17 -13 9 -13 13 -30 10 -39z"/>
<path d="M2164 932 c4 -6 0 -33 -9 -58 -10 -29 -12 -51 -7 -56 14 -14 23 6 28
62 2 30 0 52 -8 56 -7 4 -8 3 -4 -4z"/>
<path d="M1389 1193 c-2 -45 2 -138 7 -142 2 -2 4 35 4 82 0 48 -2 87 -5 87
-3 0 -6 -12 -6 -27z"/>
<path d="M1282 1115 c0 -16 2 -22 5 -12 2 9 2 23 0 30 -3 6 -5 -1 -5 -18z"/>
</g>
</svg>
