<?xml version="1.0" standalone="no"?>
<!DOCTYPE svg PUBLIC "-//W3C//DTD SVG 20010904//EN"
 "http://www.w3.org/TR/2001/REC-SVG-20010904/DTD/svg10.dtd">
<svg version="1.0" xmlns="http://www.w3.org/2000/svg"
 width="300.000000pt" height="300.000000pt" viewBox="0 0 300.000000 300.000000"
 preserveAspectRatio="xMidYMid meet">
<metadata>
Created by potrace 1.10, written by Peter Selinger 2001-2011
</metadata>
<g transform="translate(0.000000,300.000000) scale(0.050000,-0.050000)"
fill="#000000" stroke="none">
<path d="M1341 5947 c-48 -62 -52 -122 -12 -180 47 -67 56 -187 23 -294 -70
-229 50 -274 505 -192 144 26 336 1 463 -62 16 -8 56 -27 88 -42 32 -15 85
-52 117 -82 33 -30 66 -55 73 -55 40 0 83 -174 102 -411 12 -142 30 -342 40
-443 11 -101 20 -252 20 -336 0 -172 73 -333 103 -227 11 41 13 38 15 -18 2
-70 113 -205 169 -205 37 0 153 155 153 204 0 20 11 34 25 31 13 -3 38 24 55
60 16 35 41 64 55 65 18 0 25 53 25 195 0 221 28 567 64 775 13 77 24 149 25
160 4 37 34 160 55 220 22 65 185 183 281 203 30 7 55 21 55 32 0 32 499 2
588 -36 202 -84 273 -31 267 203 -4 166 -1 183 51 257 l56 79 -46 36 c-56 43
-108 45 -220 8 -47 -16 -140 -39 -206 -52 -66 -12 -214 -47 -330 -76 -272 -70
-1412 -82 -1670 -18 -77 19 -162 33 -190 31 -73 -5 -220 25 -220 46 0 9 -7 15
-15 13 -30 -7 -145 28 -145 44 0 9 -29 23 -65 31 -36 7 -76 23 -90 34 -14 11
-25 13 -25 5 0 -8 -22 0 -49 18 -73 47 -142 40 -190 -21z m179 -136 c0 -53
-42 -55 -88 -5 -41 45 -43 54 -17 80 33 34 105 -18 105 -75z m167 -63 c-6 -15
-20 -28 -30 -28 -11 0 -13 -10 -6 -22 7 -12 33 -16 56 -9 96 28 213 35 213 13
0 -12 -29 -23 -65 -23 -89 -2 -22 -29 120 -48 58 -8 105 -23 105 -33 0 -10 34
-18 75 -19 41 0 113 -8 159 -17 54 -11 87 -9 91 4 5 14 38 13 100 -3 51 -12
228 -23 394 -23 188 0 301 -8 301 -20 0 -24 464 -3 480 21 6 9 67 22 135 30
69 8 125 21 125 29 0 8 86 19 191 25 231 12 310 55 102 55 -86 0 -131 7 -123
20 7 11 50 20 96 19 46 0 127 4 179 9 52 6 95 2 95 -7 0 -10 18 -24 40 -31 33
-11 40 -30 40 -116 -1 -93 -38 -220 -40 -134 -1 27 -3 27 -20 0 -16 -25 -19
-22 -20 13 0 39 -10 42 -112 37 -67 -3 -101 2 -85 12 17 11 -2 17 -53 16 -64
-2 -70 -5 -32 -16 27 -7 -81 -11 -240 -9 -158 2 -268 0 -243 -6 77 -17 52 -53
-27 -38 -47 9 -68 6 -59 -7 6 -11 -6 -30 -28 -41 -22 -12 -35 -34 -29 -50 8
-20 -12 -35 -66 -49 -63 -17 -83 -35 -103 -92 -14 -38 -34 -70 -44 -70 -11 0
-19 -22 -19 -50 0 -27 9 -50 20 -50 11 0 20 -13 20 -30 0 -16 -13 -30 -30 -30
-24 0 -30 -28 -30 -130 0 -73 -9 -130 -20 -130 -11 0 -20 -23 -20 -51 0 -28
-8 -47 -17 -41 -23 15 -47 -584 -26 -658 11 -40 8 -80 -9 -120 -15 -33 -27
-46 -27 -28 -1 47 -50 38 -75 -15 -20 -42 -17 -47 21 -47 24 0 34 -7 22 -15
-29 -21 -114 -145 -99 -145 7 0 6 -10 -1 -21 -8 -13 -48 17 -99 72 -53 58 -89
83 -94 67 -6 -18 -12 -16 -22 8 -10 28 -1 34 55 34 67 0 68 1 41 55 -19 38
-31 187 -40 475 -8 231 -17 424 -22 428 -4 5 -9 -184 -11 -420 -2 -354 -5
-404 -20 -288 -10 77 -14 226 -9 330 5 105 1 226 -9 270 -16 75 -17 73 -10
-30 6 -76 3 -95 -8 -60 -22 65 -25 200 -5 200 41 0 7 181 -47 244 -53 64 -54
66 -13 72 42 7 5 84 -40 84 -9 0 -34 18 -56 40 -22 22 -30 40 -17 40 13 0 8
17 -13 40 -43 47 -70 51 -70 11 0 -20 -17 -14 -54 21 -37 34 -68 47 -98 39
-24 -6 -74 2 -111 18 l-67 29 60 4 60 4 -55 8 c-62 10 -73 39 -20 51 19 5 -10
5 -65 2 -74 -5 -87 -2 -50 10 l50 17 -60 8 c-33 4 -109 1 -170 -7 -131 -18
-344 1 -365 32 -8 13 -15 -1 -15 -32 -1 -156 -68 -27 -89 171 l-14 136 51 -13
c46 -12 52 -7 52 39 0 51 1 52 49 21 28 -19 44 -44 38 -61z"/>
<path d="M3187 4240 c0 -93 3 -132 8 -85 4 47 4 123 0 170 -5 47 -8 9 -8 -85z"/>
<path d="M2955 5985 c47 -4 123 -4 170 0 47 5 9 8 -85 8 -93 0 -132 -3 -85 -8z"/>
<path d="M950 5845 c-11 -8 -42 -60 -70 -114 -71 -142 -134 -198 -334 -302
-36 -18 -69 -48 -75 -66 -6 -18 -38 -64 -72 -101 -42 -48 -56 -81 -48 -110 7
-23 17 -58 22 -77 5 -19 18 -35 28 -35 11 0 19 -11 20 -25 0 -14 59 -51 131
-83 72 -32 147 -80 167 -105 20 -26 47 -47 59 -47 12 0 22 -11 23 -25 0 -14
36 -52 79 -85 43 -33 79 -70 79 -83 1 -13 8 -27 16 -30 172 -77 237 -960 181
-2437 -1 -27 -14 -162 -30 -300 -15 -137 -33 -297 -40 -355 -6 -58 -19 -105
-29 -105 -9 0 -17 -12 -17 -28 0 -23 -146 -262 -179 -292 -65 -60 -110 -320
-56 -320 17 0 36 -13 41 -28 19 -47 376 -3 476 59 12 7 62 -2 112 -21 175 -67
354 -17 403 113 24 61 7 91 -139 242 l-98 100 0 163 c-1 89 -7 234 -15 322
-19 207 -19 1545 -1 1870 8 138 15 279 15 315 1 62 2 63 56 40 74 -32 585
-553 585 -596 0 -11 10 -19 21 -19 12 0 46 -29 75 -64 147 -176 409 -444 479
-491 25 -16 45 -41 45 -55 0 -14 32 -49 70 -79 39 -29 70 -66 70 -82 0 -16 12
-29 26 -29 14 0 41 -25 59 -55 50 -80 121 -155 162 -171 19 -7 44 -39 54 -69
11 -31 42 -73 69 -93 28 -21 50 -50 50 -65 0 -15 8 -27 18 -27 10 0 48 -47 85
-105 200 -316 213 -495 38 -495 -39 0 -41 -11 -41 -200 l0 -200 77 0 c98 0
287 35 302 56 6 9 43 31 81 50 158 76 232 223 213 425 -21 219 -37 309 -55
309 -10 0 -18 14 -18 31 0 39 -118 265 -165 318 -19 21 -35 50 -35 65 0 14
-18 37 -40 51 -22 13 -40 31 -40 40 0 8 -36 50 -80 93 -44 42 -80 82 -80 87 0
6 -92 106 -205 222 -113 116 -240 253 -284 304 -43 50 -111 126 -150 167 -109
115 -161 180 -161 202 0 11 -12 20 -26 20 -14 0 -40 25 -58 55 -18 30 -63 87
-99 127 -37 39 -103 115 -147 168 -97 117 -268 290 -287 290 -7 0 -25 26 -39
58 -32 72 -92 142 -121 142 -13 0 -23 13 -23 30 0 16 -26 54 -57 85 -32 30
-105 114 -164 185 -59 72 -114 133 -123 137 -8 3 -35 41 -59 85 -25 43 -52 78
-61 78 -9 0 -16 23 -16 50 0 75 -79 230 -117 230 -18 0 -67 6 -109 13 l-76 13
40 -73 41 -73 -62 0 c-54 0 -58 -4 -36 -31 19 -23 29 -25 40 -7 24 39 66 9
114 -82 83 -155 100 -190 126 -250 l25 -60 15 50 c14 46 15 46 17 7 1 -24 11
-47 22 -50 11 -4 22 -32 24 -62 3 -39 14 -52 35 -46 17 5 62 -18 100 -50 61
-52 64 -59 27 -59 -32 0 -40 -9 -32 -40 6 -22 17 -40 25 -40 7 0 33 -18 57
-41 l44 -41 1 56 1 56 33 -47 c21 -31 31 -79 27 -140 -4 -86 -3 -90 24 -54 23
30 36 34 57 17 15 -12 45 -26 67 -32 29 -7 25 -10 -17 -12 l-57 -2 66 -75 c36
-41 74 -73 83 -70 10 4 13 -3 6 -13 -6 -11 -3 -25 9 -32 11 -7 20 3 20 21 0
28 5 29 30 9 31 -25 42 -84 15 -75 -8 3 -15 -4 -16 -15 0 -11 11 -18 24 -14
13 3 27 -15 31 -39 6 -41 76 -74 76 -35 0 10 -13 18 -30 18 -16 0 -30 10 -30
21 0 44 70 7 77 -39 4 -27 20 -62 36 -78 16 -16 44 -51 61 -77 17 -25 38 -42
47 -36 9 5 28 -7 43 -27 14 -20 44 -44 66 -53 38 -16 37 -17 -10 -32 -27 -8
-39 -16 -26 -17 13 -1 47 -24 74 -52 28 -27 60 -50 71 -50 12 0 21 -20 21 -45
1 -44 39 -125 40 -85 0 11 9 7 20 -10 14 -22 20 -10 22 50 l3 80 21 -73 c11
-41 39 -83 62 -94 40 -20 40 -20 -8 -22 -40 -1 -44 -6 -20 -21 25 -16 26 -19
1 -20 -55 0 107 -100 168 -103 47 -2 51 -4 16 -11 -52 -10 -57 -31 -15 -66 17
-14 30 -18 30 -9 0 8 18 -5 39 -30 21 -24 47 -40 56 -34 9 6 30 2 46 -8 22
-14 15 -18 -26 -19 -30 0 -55 -3 -55 -7 0 -22 141 -153 164 -153 15 0 29 -18
32 -40 2 -22 6 -58 8 -80 5 -47 47 -53 63 -10 31 79 153 -84 125 -166 -11 -30
-9 -29 16 3 23 29 37 32 70 14 53 -29 54 -81 2 -81 -22 0 -40 -8 -40 -18 0
-10 17 -14 38 -8 42 11 162 -44 162 -75 0 -10 -31 -19 -70 -19 l-70 0 41 -41
c22 -22 51 -34 63 -27 12 8 17 6 10 -5 -6 -10 -3 -32 7 -48 14 -23 18 -19 19
15 0 32 9 41 30 33 33 -12 42 -87 11 -87 -11 0 -15 -13 -8 -30 6 -16 22 -30
36 -30 13 0 35 -22 47 -50 19 -41 18 -50 -6 -50 -17 0 -30 -10 -30 -21 0 -12
8 -16 18 -10 10 6 24 -5 33 -24 12 -30 17 -28 30 15 13 40 16 31 14 -40 -1
-49 8 -112 19 -140 41 -100 51 -146 28 -131 -13 8 -22 0 -22 -19 0 -19 -9 -27
-22 -19 -15 10 -18 0 -8 -30 15 -49 -53 -141 -105 -141 -15 0 -22 -8 -16 -18
6 -10 -2 -23 -18 -29 -16 -6 -32 0 -37 13 -6 18 -22 19 -69 1 -83 -30 -101 26
-33 100 27 28 48 61 48 72 0 12 10 21 22 21 12 0 18 11 13 25 -5 14 -3 72 4
129 8 63 6 102 -6 100 -11 -2 -34 23 -51 56 -18 33 -41 67 -52 75 -11 8 -5 15
15 15 48 0 45 64 -5 95 -36 23 -40 20 -41 -30 0 -50 -2 -52 -22 -17 -17 28
-17 48 0 75 15 23 16 37 3 37 -11 0 -20 18 -20 40 0 22 -9 40 -21 40 -11 0
-28 20 -38 45 -11 26 -19 32 -20 15 -1 -27 -4 -27 -21 0 -14 22 -20 9 -20 -50
0 -59 -6 -72 -20 -50 -11 17 -20 62 -20 101 0 107 -116 223 -122 122 -1 -18
-9 -7 -19 25 -18 63 -8 100 22 81 11 -6 19 -4 19 5 0 27 -178 101 -187 77 -5
-11 -18 2 -29 31 -11 28 -48 75 -82 103 -34 29 -62 60 -63 69 -1 29 -67 96
-119 120 l-50 23 47 2 c41 1 44 6 22 32 -19 24 -29 25 -41 6 -26 -42 -83 21
-69 77 10 40 5 46 -49 46 -51 0 -60 8 -60 51 0 38 -16 58 -65 79 -36 16 -55
29 -42 29 32 1 -14 101 -47 101 -13 0 -35 12 -50 26 -14 15 -51 43 -82 63 -31
20 -52 48 -46 62 5 14 -10 31 -34 39 -40 13 -40 15 -7 24 56 15 -54 122 -141
138 -38 7 -63 18 -57 24 6 6 -6 22 -27 37 -20 14 -43 58 -51 97 -7 38 -22 70
-32 70 -11 0 -37 29 -59 65 -26 42 -40 53 -40 31 0 -25 -10 -31 -35 -22 -43
15 -106 78 -93 91 5 6 -13 16 -42 23 -28 7 -46 22 -40 33 7 10 -7 19 -30 19
-23 0 -37 -9 -30 -20 7 -11 -1 -15 -17 -8 -18 7 -34 -5 -42 -29 -7 -22 -36
-48 -64 -57 -58 -20 -125 -166 -76 -166 20 0 22 -15 9 -61 -10 -34 -18 -175
-19 -314 0 -139 -8 -257 -18 -264 -28 -17 -53 -641 -26 -641 15 0 21 -103 21
-320 l0 -320 -49 0 c-54 0 -68 -103 -27 -190 14 -29 16 -15 11 55 -5 53 0 101
9 106 10 6 18 -32 18 -85 0 -53 9 -109 20 -126 16 -25 19 -25 20 -2 1 99 27
-33 50 -250 19 -188 35 -262 58 -279 18 -13 32 -32 32 -42 0 -11 19 -39 41
-64 91 -97 -28 -158 -201 -103 -44 14 -40 16 29 18 45 1 71 9 60 19 -10 9 -58
13 -106 8 -60 -7 -79 -15 -60 -27 21 -14 20 -17 -8 -18 -19 0 -35 9 -35 20 0
11 -9 20 -20 20 -11 0 -18 -7 -15 -15 8 -24 -12 -29 -52 -13 -22 8 -43 4 -53
-12 -9 -14 -31 -20 -49 -13 -19 7 -28 21 -22 31 6 11 3 25 -9 32 -36 22 -21
93 39 191 36 59 50 99 37 104 -21 7 52 187 86 215 33 27 40 100 9 100 -17 0
-31 14 -31 31 0 17 9 26 20 19 11 -7 30 13 41 43 12 31 14 59 5 62 -9 3 -10
88 -3 190 7 102 14 210 15 240 3 87 42 64 42 -25 0 -44 7 -80 15 -80 8 0 12
324 8 720 -7 720 -7 720 35 720 45 0 49 24 22 130 l-15 60 -6 -60 c-3 -35 -11
-11 -17 60 -9 87 -5 122 13 126 34 9 31 37 -5 51 -16 7 -30 35 -30 62 0 28 -9
51 -20 51 -11 0 -21 71 -23 165 -2 91 -7 127 -12 80 -16 -184 -62 -72 -76 187
-4 76 -9 149 -11 163 -7 38 -163 174 -208 182 -72 12 -58 23 31 23 87 0 88 0
41 33 -26 18 -68 35 -94 38 -73 8 -127 94 -110 177 3 10 -9 7 -26 -7 -25 -20
-37 -19 -64 8 -18 19 -48 27 -69 21 -52 -17 -135 28 -97 52 16 9 19 18 7 18
-28 0 -92 111 -74 128 8 8 -2 8 -21 1 -19 -7 -34 -8 -34 -1 0 13 76 47 109 48
11 1 26 17 34 38 13 33 14 33 16 1 1 -31 12 -29 84 19 l83 55 -88 21 c-48 12
-79 27 -68 33 27 14 161 5 193 -14 15 -9 20 -8 12 1 -8 9 -1 38 16 64 17 26
26 55 20 65 -21 34 35 47 59 14 14 -18 37 -33 52 -33 23 1 23 4 2 17 -33 21
-24 147 11 158 14 5 25 -5 25 -22 0 -41 41 -64 60 -33 8 13 19 -37 25 -113 5
-75 3 -144 -5 -153 -26 -30 2 -117 30 -94 18 15 29 12 38 -13 7 -19 4 -39 -7
-46 -28 -18 32 -101 72 -101 26 0 29 17 18 95 -18 127 -18 251 -1 387 l14 113
-77 57 c-42 32 -81 63 -87 70 -17 21 -149 38 -170 23z m2970 -4663 c0 -31 -78
-39 -102 -10 -19 23 -12 28 40 28 34 0 62 -8 62 -18z m-2960 -272 c0 -29 -12
-50 -27 -50 -18 0 -24 16 -18 50 5 28 18 50 27 50 10 0 18 -22 18 -50z"/>
<path d="M3115 5805 c47 -4 123 -4 170 0 47 5 9 8 -85 8 -93 0 -132 -3 -85 -8z"/>
<path d="M5040 5739 c-49 -20 -119 -37 -154 -38 -73 -1 -132 -50 -118 -98 21
-73 35 -363 18 -363 -10 0 -39 -19 -64 -42 -29 -28 -60 -38 -88 -31 -275 72
-410 78 -415 18 -2 -23 -36 -322 -51 -445 -13 -106 -259 -520 -309 -520 -9 0
-21 -16 -28 -35 -6 -19 -42 -69 -81 -111 -38 -42 -70 -85 -70 -95 0 -11 -8
-19 -19 -19 -10 0 -23 -16 -30 -35 -6 -19 -41 -66 -77 -105 -36 -38 -85 -98
-110 -133 -50 -71 -148 -188 -228 -271 -70 -74 -85 -124 -47 -162 17 -17 31
-36 31 -41 0 -12 70 -98 145 -177 30 -33 55 -64 55 -69 0 -23 84 -127 102
-127 22 0 178 143 178 164 0 7 47 62 105 121 134 137 215 234 215 257 0 10 10
18 21 18 12 0 16 9 9 20 -7 11 -3 20 9 20 12 0 27 13 34 30 6 16 42 63 81 105
38 41 82 100 98 130 16 30 37 55 47 55 11 0 47 58 81 129 34 71 70 135 81 142
11 6 15 19 10 28 -6 8 10 14 34 13 100 -5 130 -120 157 -602 77 -1333 23
-2195 -148 -2374 -97 -101 -158 -204 -160 -266 -3 -106 -17 -104 409 -79 201
12 216 10 290 -36 76 -48 227 -57 227 -13 0 10 14 18 31 18 40 0 128 100 128
146 1 33 -147 234 -184 251 -8 3 -15 24 -15 45 0 21 -7 38 -17 38 -19 0 -63
179 -63 262 0 32 -9 58 -20 58 -12 0 -20 67 -20 160 0 88 -8 160 -17 160 -9 0
-11 33 -5 73 7 39 6 163 -2 275 -23 340 -21 2216 3 2279 11 31 21 78 21 104 0
27 10 49 23 49 43 0 177 160 177 211 0 27 -9 49 -20 49 -11 0 -20 15 -20 33 0
30 -71 107 -98 107 -7 0 -12 -51 -13 -114 0 -110 -47 -187 -50 -83 l-2 47 -19
-50 c-11 -27 -34 -61 -53 -75 -30 -23 -30 -25 1 -25 49 0 43 -16 -33 -83 -85
-75 -83 -42 -82 -1433 1 -937 -2 -1045 -30 -1039 -27 5 -32 83 -35 635 -5 678
-19 960 -48 960 -10 0 -19 -145 -21 -325 l-3 -325 -15 210 c-8 116 -13 297
-12 403 2 106 -3 190 -9 186 -7 -5 -7 21 1 56 17 78 -55 162 -157 184 -34 8
-62 22 -62 33 0 24 -82 23 -120 -2 -16 -11 -21 -20 -10 -20 29 -2 -44 -41 -93
-51 -60 -11 -72 -29 -20 -29 29 0 43 -12 43 -37 0 -30 -11 -35 -55 -27 -30 5
-49 3 -41 -6 8 -8 1 -28 -15 -44 -16 -16 -25 -37 -19 -46 6 -10 1 -23 -10 -30
-11 -7 -15 -21 -9 -31 6 -11 2 -19 -10 -19 -11 0 -21 14 -21 31 0 17 -10 25
-21 18 -12 -7 -17 -25 -12 -40 6 -14 -3 -38 -20 -52 -27 -22 -27 -27 6 -39 31
-12 24 -19 -38 -46 -75 -33 -103 -99 -50 -117 14 -5 0 -9 -32 -10 -74 0 -99
-28 -102 -114 -3 -80 -51 -151 -51 -75 0 24 -9 44 -20 44 -11 0 -20 -12 -20
-27 0 -15 -19 -51 -41 -80 l-42 -53 47 0 c32 -1 38 -6 20 -17 -15 -9 -46 -13
-70 -9 -24 5 -62 -5 -84 -22 -27 -21 -31 -31 -12 -31 18 -1 12 -15 -18 -41
l-46 -40 44 0 c25 0 39 -9 32 -20 -7 -11 -30 -20 -51 -20 -22 0 -39 -14 -39
-31 0 -24 -9 -22 -44 10 -24 23 -62 42 -85 43 -34 2 -32 5 9 15 45 11 49 21
38 73 -7 33 -14 47 -16 30 -2 -27 -5 -27 -22 0 -13 21 -19 22 -20 5 0 -19 -14
-17 -51 8 -34 22 -44 40 -31 53 13 13 13 33 1 56 -22 42 16 78 41 38 19 -30
105 -6 95 27 -5 13 -39 29 -77 35 -78 14 -75 18 22 31 68 10 187 99 170 127
-11 18 84 109 116 112 71 6 74 10 63 55 -7 29 0 59 17 76 16 16 37 60 46 98
l17 69 12 -90 c10 -69 14 -76 16 -29 2 39 26 85 65 125 l63 64 -68 3 c-51 2
-55 5 -20 11 26 5 52 27 58 49 6 23 22 35 38 29 15 -6 27 -2 27 8 0 10 14 14
30 7 17 -6 31 -4 32 6 0 9 5 35 11 57 5 22 11 67 14 100 8 105 42 131 53 41
l10 -79 68 176 c38 96 81 188 97 204 24 24 24 28 -4 28 -25 0 -30 22 -27 115
3 114 3 114 11 20 7 -95 44 -134 47 -50 1 25 4 68 7 95 3 28 -4 56 -15 63 -30
19 21 77 66 77 20 0 41 14 47 31 9 23 40 29 134 25 98 -4 126 2 142 30 27 48
57 42 58 -11 1 -39 6 -36 34 20 18 36 40 65 49 65 9 0 16 72 16 160 0 143 4
160 38 160 20 0 49 14 63 31 14 18 43 27 63 22 20 -5 36 -3 36 4 2 63 40 67
110 14 41 -31 66 -62 56 -69 -11 -6 -12 -34 -4 -62 12 -42 15 -44 18 -10 3 34
6 32 18 -10 8 -27 25 -51 38 -52 51 -6 52 -12 5 -26 l-48 -13 63 -65 c35 -36
63 -85 63 -110 -2 -42 -3 -42 -19 -4 -15 34 -17 35 -19 5 0 -19 -10 -35 -20
-35 -10 0 -43 -22 -73 -50 l-54 -50 48 -2 c26 0 37 -6 23 -11 -14 -6 -25 -23
-25 -39 0 -57 245 -37 307 25 53 53 77 187 33 187 -11 0 -20 11 -20 25 0 14
-18 37 -40 50 -22 14 -40 39 -40 55 0 17 -18 30 -40 30 -32 0 -40 13 -40 65 0
74 -60 255 -84 255 -9 0 -16 14 -16 30 0 17 -13 30 -30 30 -16 0 -30 9 -30 20
0 32 -141 19 -240 -21z m-1320 -1949 c0 -19 -19 -30 -52 -30 -45 0 -49 5 -28
30 14 17 37 30 52 30 16 0 28 -13 28 -30z m1099 -1609 c-11 -20 -17 29 -16
139 l2 170 16 -139 c10 -80 9 -152 -2 -170z m160 -146 c-8 -455 27 -814 81
-832 11 -3 20 -28 20 -55 0 -67 40 -61 42 7 0 30 6 42 11 25 6 -16 23 -58 39
-93 36 -82 36 -114 -2 -100 -25 10 -27 5 -10 -26 53 -101 -37 -158 -112 -70
-44 51 -88 65 -88 27 0 -12 -11 -17 -25 -12 -14 5 -23 19 -20 32 6 28 -68 29
-85 2 -7 -12 -21 -16 -30 -10 -10 6 -27 -5 -38 -25 -20 -33 -21 -33 -21 0 -1
24 -17 35 -51 35 -67 0 -66 56 2 163 40 63 46 86 26 98 -21 13 -20 22 1 47 14
18 21 32 14 32 -6 0 3 33 19 73 17 40 26 94 19 120 -7 26 -3 47 9 47 12 0 20
-66 20 -163 0 -220 12 -193 30 63 32 468 44 591 50 500 5 -83 7 -78 25 55 10
80 27 145 37 145 10 0 18 27 18 60 0 33 5 60 11 60 7 0 10 -92 8 -205z"/>
<path d="M4480 5011 c0 -37 33 -58 50 -31 7 11 56 20 110 20 54 0 103 9 110
20 8 13 -40 20 -129 20 -109 0 -141 -6 -141 -29z"/>
<path d="M2567 4560 c0 -93 3 -132 8 -85 4 47 4 123 0 170 -5 47 -8 9 -8 -85z"/>
<path d="M2626 2595 c-30 -58 -66 -123 -79 -145 -14 -22 -36 -60 -49 -85 -14
-25 -32 -45 -41 -45 -9 0 -17 -14 -17 -30 0 -28 -36 -106 -60 -130 -125 -125
-176 -691 -78 -860 10 -16 26 -49 36 -71 16 -37 68 -87 198 -192 23 -19 86
-37 144 -40 l103 -7 2 219 2 219 -69 23 -68 23 4 138 c6 185 12 228 36 228 11
0 30 20 43 45 12 25 41 83 64 129 24 46 52 89 63 96 11 7 15 21 9 31 -6 11 5
19 25 19 22 0 58 36 90 89 l54 89 -79 71 c-44 39 -86 71 -94 71 -8 0 -27 26
-41 58 -28 63 -107 162 -129 162 -8 0 -39 -47 -69 -105z m150 -261 c4 -20 1
-52 -8 -70 -8 -19 -15 -41 -16 -50 -1 -8 -12 -22 -23 -30 -12 -8 -28 -31 -36
-51 -7 -20 -32 -42 -54 -47 -22 -6 -37 -21 -33 -34 5 -12 0 -39 -11 -59 -13
-27 -12 -34 3 -24 13 8 22 -1 22 -19 0 -18 -9 -27 -21 -20 -13 9 -19 -13 -16
-58 3 -39 -1 -77 -9 -85 -8 -7 -14 28 -14 80 0 69 -8 93 -30 93 -20 0 -30 -20
-30 -60 0 -53 -7 -60 -60 -60 -33 0 -60 6 -60 13 0 21 83 147 97 147 7 0 15
46 17 103 4 111 66 219 66 115 0 -61 14 -79 52 -64 17 6 28 39 28 82 0 115
117 199 136 98z m-339 -684 c-4 -72 0 -130 8 -130 26 0 17 -40 -19 -88 l-35
-46 -25 49 c-34 65 -33 85 4 85 24 0 30 28 30 130 0 80 8 130 22 130 14 0 19
-46 15 -130z m103 -207 c0 -46 -63 -163 -82 -152 -31 20 -20 74 12 62 24 -9
30 7 30 83 1 68 6 86 20 64 11 -16 20 -42 20 -57z m91 -165 c-1 -92 -83 -123
-96 -36 -4 33 -1 64 8 70 10 6 17 29 17 52 0 39 3 40 36 10 20 -19 35 -60 35
-96z"/>
<path d="M3412 2408 c-18 -48 -14 -58 12 -32 13 13 42 24 63 24 47 0 28 25
-26 33 -20 4 -42 -8 -49 -25z"/>
<path d="M3090 2180 c7 -11 1 -21 -14 -21 -27 -2 -156 -166 -156 -199 0 -11
-9 -20 -20 -20 -13 0 -20 -194 -20 -542 0 -631 22 -560 -262 -840 -241 -237
-322 -389 -226 -426 81 -31 488 9 488 48 0 19 361 6 406 -15 58 -28 216 -75
354 -104 61 -13 135 -34 166 -45 122 -47 218 117 124 211 -16 17 -30 39 -30
49 0 11 -16 25 -35 32 -365 134 -410 258 -433 1210 l-9 349 -71 65 c-40 36
-72 74 -72 84 0 28 -151 184 -178 184 -13 0 -19 -9 -12 -20z m20 -240 c-7 -11
-2 -20 10 -20 12 0 18 -7 13 -16 -6 -9 7 -17 28 -19 23 -1 39 10 39 28 0 23
11 18 39 -16 30 -38 32 -48 10 -53 -60 -14 -39 -324 21 -324 l50 0 3 -275 c2
-151 2 -353 0 -449 -1 -97 6 -179 17 -186 12 -7 21 15 22 54 l1 66 28 -60 c40
-88 35 -110 -23 -110 -44 0 -49 -5 -29 -29 13 -16 38 -23 55 -17 21 8 28 3 22
-16 -5 -15 3 -37 19 -49 16 -12 30 -45 32 -75 2 -30 12 -54 22 -54 12 0 11 -8
-1 -20 -23 -23 -275 13 -285 41 -8 25 -323 25 -323 0 0 -31 -132 -47 -180 -21
-40 21 -41 26 -12 58 18 19 32 44 32 55 0 10 32 50 72 88 39 38 102 115 140
172 l69 102 4 503 c3 276 11 502 20 502 8 0 16 -29 18 -65 l3 -65 9 60 c5 33
18 71 29 85 15 18 12 25 -10 25 -36 0 -34 42 4 88 30 35 52 44 32 12z m461
-1674 c-12 -32 18 -33 72 -4 51 27 71 9 36 -33 -18 -22 -42 -27 -78 -18 -28 8
-82 14 -121 14 -57 0 -60 2 -15 9 46 7 55 19 56 72 0 61 2 62 30 25 16 -22 25
-51 20 -65z"/>
<path d="M3251 1417 c6 -41 1 -80 -10 -87 -25 -15 -28 -110 -4 -110 28 0 44
145 23 210 -19 57 -19 57 -9 -13z"/>
<path d="M1927 1680 c0 -93 3 -132 8 -85 4 47 4 123 0 170 -5 47 -8 9 -8 -85z"/>
<path d="M2083 1675 c3 -170 11 -151 21 50 3 63 -1 115 -9 115 -8 0 -14 -74
-12 -165z"/>
</g>
</svg>
